<svg width="37" height="27" viewBox="0 0 37 27" fill="none" xmlns="http://www.w3.org/2000/svg">
<path d="M35.4584 23.125C35.4584 23.8543 35.1335 24.5538 34.5553 25.0695C33.977 25.5853 33.1928 25.875 32.375 25.875H4.62502C3.80727 25.875 3.02301 25.5853 2.44477 25.0695C1.86654 24.5538 1.54169 23.8543 1.54169 23.125V8C1.54169 7.27065 1.86654 6.57118 2.44477 6.05546C3.02301 5.53973 3.80727 5.25 4.62502 5.25H10.7917L13.875 1.125H23.125L26.2084 5.25H32.375C33.1928 5.25 33.977 5.53973 34.5553 6.05546C35.1335 6.57118 35.4584 7.27065 35.4584 8V23.125Z" stroke="white" stroke-width="1.5" stroke-linecap="round" stroke-linejoin="round"/>
<path d="M18.5 20.375C21.9058 20.375 24.6667 17.9126 24.6667 14.875C24.6667 11.8374 21.9058 9.375 18.5 9.375C15.0943 9.375 12.3334 11.8374 12.3334 14.875C12.3334 17.9126 15.0943 20.375 18.5 20.375Z" stroke="white" stroke-width="1.5" stroke-linecap="round" stroke-linejoin="round"/>
</svg>
