<svg width="364" height="362" viewBox="0 0 364 362" fill="none" xmlns="http://www.w3.org/2000/svg">
<g filter="url(#filter0_f_7_125)">
<path d="M231.769 107.216C274.35 135.937 286.587 192.255 259.101 233.005C231.615 273.755 174.814 283.506 132.232 254.784C89.6507 226.063 77.4136 169.745 104.9 128.995C132.386 88.2451 189.187 78.4941 231.769 107.216Z" fill="#292150"/>
</g>
<path d="M197.42 247.725L123.209 230.047C119.371 229.133 116.89 225.413 117.52 221.519C118.19 217.375 122.119 214.58 126.253 215.304L205.314 229.156C206.806 229.418 208.323 229.519 209.837 229.457L210.216 229.441C216.178 229.197 221.733 226.352 225.414 221.656C227.413 219.106 228.775 216.115 229.386 212.933L241.077 152.094C241.622 149.256 243.773 146.997 246.581 146.314C248.365 145.879 250.246 146.125 251.858 147.003L252.711 147.468C256.38 149.465 258.4 153.551 257.759 157.679L249.446 211.193C248.218 219.105 244.896 226.544 239.825 232.739L239.064 233.669C233.21 240.821 225.132 245.81 216.115 247.841C209.956 249.228 203.561 249.188 197.42 247.725Z" fill="url(#paint0_linear_7_125)"/>
<path d="M117.026 221.439C117.741 217.02 121.931 214.039 126.34 214.812L205.4 228.664C206.857 228.92 208.338 229.018 209.816 228.957L210.196 228.941C216.011 228.703 221.43 225.928 225.021 221.347C226.971 218.86 228.298 215.943 228.895 212.839L240.585 152C241.168 148.97 243.465 146.557 246.463 145.828C248.367 145.364 250.376 145.627 252.097 146.564L252.95 147.028C256.804 149.126 258.926 153.419 258.252 157.756L249.941 211.27C248.698 219.27 245.339 226.792 240.212 233.057L239.451 233.985C233.527 241.224 225.351 246.273 216.225 248.329C209.992 249.733 203.52 249.692 197.304 248.211L123.093 230.534C119.001 229.559 116.354 225.591 117.026 221.439ZM126.167 215.797C122.307 215.12 118.64 217.73 118.014 221.599C117.426 225.234 119.742 228.708 123.325 229.561L197.536 247.239C203.603 248.685 209.921 248.724 216.005 247.354C224.913 245.347 232.893 240.418 238.677 233.352L239.438 232.423C244.452 226.296 247.737 218.94 248.953 211.116L257.265 157.603C257.873 153.683 255.955 149.803 252.472 147.907L251.619 147.442C250.116 146.624 248.361 146.395 246.699 146.8C244.081 147.437 242.076 149.543 241.568 152.189L229.877 213.028C229.251 216.288 227.855 219.351 225.808 221.964C222.036 226.775 216.345 229.691 210.237 229.941L209.858 229.956C208.308 230.019 206.755 229.917 205.227 229.649L126.167 215.797Z" fill="black"/>
<path d="M115.357 169.823C111.465 167.198 110.438 161.915 113.063 158.023C115.689 154.131 120.972 153.104 124.863 155.729L163.828 182.011C167.72 184.636 168.747 189.919 166.122 193.811C163.497 197.703 158.214 198.73 154.322 196.105L115.357 169.823Z" fill="url(#paint1_linear_7_125)"/>
<path d="M140.912 128.074C138.03 124.109 138.91 118.558 142.875 115.677C146.841 112.796 152.391 113.675 155.273 117.64L185.975 159.899C188.857 163.865 187.978 169.415 184.012 172.297C180.046 175.178 174.496 174.299 171.615 170.333L140.912 128.074Z" fill="url(#paint2_linear_7_125)"/>
<path d="M191.572 114.084C190.511 109.487 193.377 104.899 197.975 103.838C202.572 102.777 207.159 105.643 208.22 110.24L218.549 154.978C219.61 159.575 216.744 164.162 212.147 165.223C207.549 166.285 202.962 163.418 201.901 158.821L191.572 114.084Z" fill="url(#paint3_linear_7_125)"/>
<defs>
<filter id="filter0_f_7_125" x="0.221375" y="0.722656" width="363.558" height="360.555" filterUnits="userSpaceOnUse" color-interpolation-filters="sRGB">
<feFlood flood-opacity="0" result="BackgroundImageFix"/>
<feBlend mode="normal" in="SourceGraphic" in2="BackgroundImageFix" result="shape"/>
<feGaussianBlur stdDeviation="45" result="effect1_foregroundBlur_7_125"/>
</filter>
<linearGradient id="paint0_linear_7_125" x1="132.697" y1="220.118" x2="244.211" y2="165.666" gradientUnits="userSpaceOnUse">
<stop stop-color="#5986E6"/>
<stop offset="0.217699" stop-color="#F26A9A"/>
<stop offset="0.508263" stop-color="#7DF48F"/>
<stop offset="0.77014" stop-color="#C8D991"/>
<stop offset="1" stop-color="#A1D281"/>
</linearGradient>
<linearGradient id="paint1_linear_7_125" x1="113.063" y1="158.023" x2="166.122" y2="193.811" gradientUnits="userSpaceOnUse">
<stop stop-color="#90ED8F"/>
<stop offset="1" stop-color="#F16A9A"/>
</linearGradient>
<linearGradient id="paint2_linear_7_125" x1="142.875" y1="115.677" x2="184.012" y2="172.297" gradientUnits="userSpaceOnUse">
<stop stop-color="#FC9494"/>
<stop offset="1" stop-color="#5986E6"/>
</linearGradient>
<linearGradient id="paint3_linear_7_125" x1="197.975" y1="103.838" x2="212.147" y2="165.223" gradientUnits="userSpaceOnUse">
<stop stop-color="#A1D281"/>
<stop offset="1" stop-color="#F6AD7B"/>
</linearGradient>
</defs>
</svg>
